# xmcd
#
# Track frame offsets: 
#        150
#        13311
#        24046
#        39413
#        52034
#        65553
#        80874
#        89838
#        107121
#        121389
#        137589
#        146328
#        159261
#        175984
#        187459
#
# Disc length: 2661 seconds
#
# Revision: 0
# Processed by: cddbd v1.5.2PL0 Copyright (c) Steve Scherf et al.
# Submitted via: ExactAudioCopy v0.99pb5
#
DISCID=d70a630f
DTITLE=The Cadillacs Band - Alabama Jubilee
DYEAR=2010
DGENRE=Country
TTITLE0=01 Alabama Jubilee
TTITLE1=02 5 Foot 2
TTITLE2=03 Mr. Sandman
TTITLE3=04 Take Me Back to Tulsa
TTITLE4=05 Back in the Saddle Again
TTITLE5=06 Sioux City Sue
TTITLE6=07 No Help Wanted
TTITLE7=08 The Auctioneer
TTITLE8=09 Young Love
TTITLE9=10 Anytime
TTITLE10=11 Zat You Myrtle
TTITLE11=12 Just Because
TTITLE12=13 Just a Closer Walk with Thee
TTITLE13=14 Under the Double Eagle
TTITLE14=15 Hot Rod Lincoln
EXTD=
EXTT0=
EXTT1=
EXTT2=
EXTT3=
EXTT4=
EXTT5=
EXTT6=
EXTT7=
EXTT8=
EXTT9=
EXTT10=
EXTT11=
EXTT12=
EXTT13=
EXTT14=
PLAYORDER=
